<svg width="40" height="40" viewBox="0 0 40 40" fill="none" xmlns="http://www.w3.org/2000/svg">
  <path d="M23.7003 18.0001C26.1903 18.0001 28.0003 20.3101 28.0003 23.0001C28.0003 25.6901 26.1903 28.0001 23.7003 28.0001C21.2103 28.0001 19.4003 25.6901 19.4003 23.0001C19.4003 20.3101 21.2103 18.0001 23.7003 18.0001ZM32.0003 25.0001C32.0003 27.6901 29.6903 30.0001 27.0003 30.0001C24.3103 30.0001 22.0003 27.6901 22.0003 25.0001C22.0003 22.3101 24.3103 20.0001 27.0003 20.0001C29.6903 20.0001 32.0003 22.3101 32.0003 25.0001ZM15.3003 25.0001C15.3003 27.6901 13.0003 30.0001 10.3103 30.0001C7.6203 30.0001 5.3103 27.6901 5.3103 25.0001C5.3103 22.3101 7.6203 20.0001 10.3103 20.0001C13.0003 20.0001 15.3003 22.3101 15.3003 25.0001Z" fill="#F0F0F0"/>
</svg>
